<svg width="209" height="52" viewBox="0 0 209 52" fill="none" xmlns="http://www.w3.org/2000/svg">
<path d="M64.7343 13.4928C66.8117 13.4928 68.4957 15.1768 68.4957 17.2542V40.5089C68.4957 42.6033 66.7979 44.3011 64.7035 44.3011H63.5137C61.5529 44.3011 59.9633 42.7115 59.9633 40.7507C57.7491 43.423 54.5423 44.7592 50.3429 44.7592C47.4415 44.7592 44.8073 44.1102 42.4404 42.8122C40.1116 41.5142 38.2791 39.6626 36.943 37.2575C35.6068 34.8524 34.9387 32.0656 34.9387 28.8969C34.9387 25.7283 35.6068 22.9414 36.943 20.5363C38.2791 18.1312 40.1116 16.2797 42.4404 14.9817C44.8073 13.6837 47.4415 13.0347 50.3429 13.0347C54.275 13.0347 57.3482 14.2754 59.5624 16.7569C59.5624 14.9542 61.0238 13.4928 62.8265 13.4928H64.7343ZM51.889 37.4293C54.1414 37.4293 56.012 36.6658 57.5009 35.1388C58.9898 33.5735 59.7342 31.4929 59.7342 28.8969C59.7342 26.3009 58.9898 24.2394 57.5009 22.7124C56.012 21.1471 54.1414 20.3645 51.889 20.3645C49.5984 20.3645 47.7087 21.1471 46.2198 22.7124C44.7309 24.2394 43.9865 26.3009 43.9865 28.8969C43.9865 31.4929 44.7309 33.5735 46.2198 35.1388C47.7087 36.6658 49.5984 37.4293 51.889 37.4293Z" fill="#FFFDFD"/>
<path d="M91.4261 44.7592C88.1811 44.7592 85.2606 44.0911 82.6646 42.7549C80.1068 41.3806 78.1026 39.4909 76.6519 37.0857C75.2012 34.6806 74.4758 31.951 74.4758 28.8969C74.4758 25.8428 75.2012 23.1132 76.6519 20.7081C78.1026 18.303 80.1068 16.4324 82.6646 15.0962C85.2606 13.7218 88.1811 13.0347 91.4261 13.0347C94.6711 13.0347 97.5725 13.7218 100.13 15.0962C102.688 16.4324 104.692 18.303 106.143 20.7081C107.594 23.1132 108.319 25.8428 108.319 28.8969C108.319 31.951 107.594 34.6806 106.143 37.0857C104.692 39.4909 102.688 41.3806 100.13 42.7549C97.5725 44.0911 94.6711 44.7592 91.4261 44.7592ZM91.4261 37.4293C93.7167 37.4293 95.5873 36.6658 97.038 35.1388C98.5269 33.5735 99.2713 31.4929 99.2713 28.8969C99.2713 26.3009 98.5269 24.2394 97.038 22.7124C95.5873 21.1471 93.7167 20.3645 91.4261 20.3645C89.1355 20.3645 87.2458 21.1471 85.7569 22.7124C84.268 24.2394 83.5236 26.3009 83.5236 28.8969C83.5236 31.4929 84.268 33.5735 85.7569 35.1388C87.2458 36.6658 89.1355 37.4293 91.4261 37.4293Z" fill="#FFFDFD"/>
<path d="M25.0535 39.0409C25.0535 42.0058 22.6499 44.4094 19.6849 44.4094C16.72 44.4094 14.3164 42.0058 14.3164 39.0409L14.3164 17.5667C14.3164 14.6017 16.72 12.1982 19.6849 12.1982C22.6499 12.1982 25.0535 14.6017 25.0535 17.5667L25.0535 39.0409Z" fill="#FFFDFD"/>
<path d="M34.8958 9.85303C30.104 5.8018 17.3113 0.130081 4.474 9.85302" stroke="#FFFDFD" stroke-width="8.94757" stroke-linecap="round"/>
<path d="M194.361 1.16919C197.039 1.16924 199.441 1.73653 201.561 2.87524L201.954 3.08813C203.888 4.17849 205.421 5.65952 206.549 7.53052C207.754 9.52784 208.355 11.7933 208.355 14.3206C208.355 16.8476 207.754 19.1124 206.549 21.1096C205.346 23.105 203.682 24.6732 201.563 25.8118L201.561 25.8127C199.441 26.9202 197.039 27.4719 194.361 27.4719C191.682 27.4719 189.265 26.9199 187.114 25.8127L187.111 25.8118C184.992 24.6732 183.328 23.105 182.125 21.1096C180.92 19.1124 180.32 16.8476 180.32 14.3206C180.32 11.7933 180.92 9.52784 182.125 7.53052C183.328 5.53493 184.992 3.98269 187.112 2.87524L187.518 2.66919C189.566 1.66819 191.849 1.16919 194.361 1.16919ZM194.361 7.52759C192.535 7.52759 191.038 8.14889 189.858 9.38989L189.857 9.39185C188.68 10.599 188.083 12.2349 188.083 14.3206C188.083 16.4053 188.679 18.0573 189.857 19.2961L190.082 19.5159C191.225 20.5798 192.648 21.1135 194.361 21.1135C196.188 21.1134 197.668 20.5058 198.816 19.2971C199.994 18.0581 200.591 16.4059 200.591 14.3206C200.591 12.235 199.995 10.599 198.818 9.39185L198.814 9.38794V9.38696C197.665 8.14832 196.186 7.52767 194.361 7.52759Z" fill="#FFFDFD" stroke="#FFFDFD" stroke-width="0.365763"/>
<path d="M145.913 1.16919C148.987 1.16919 151.444 2.08725 153.267 3.93481V3.55493C153.267 2.44416 154.168 1.54346 155.279 1.54321H158.926C160.036 1.54326 160.937 2.44404 160.937 3.55493V25.0852C160.937 26.1962 160.037 27.0969 158.926 27.0969H155.607C154.496 27.0969 153.595 26.1962 153.595 25.0852V24.4973C151.76 26.4854 149.191 27.4719 145.913 27.4719C143.512 27.4719 141.328 26.9347 139.364 25.8577L139.363 25.8567C137.428 24.7784 135.906 23.2395 134.798 21.2444C133.688 19.2471 133.137 16.9373 133.136 14.3206C133.136 11.7037 133.688 9.39314 134.798 7.39575C135.906 5.40072 137.428 3.86175 139.363 2.78345H139.364C141.328 1.7064 143.512 1.16922 145.913 1.16919ZM147.177 7.52759C145.351 7.52759 143.855 8.14889 142.675 9.38989L142.674 9.39185C141.497 10.599 140.899 12.2349 140.899 14.3206C140.899 16.4053 141.496 18.0573 142.674 19.2961L142.898 19.5159C144.042 20.5798 145.464 21.1135 147.177 21.1135C148.972 21.1134 150.452 20.507 151.633 19.2971C152.811 18.0581 153.408 16.4059 153.408 14.3206C153.408 12.235 152.811 10.599 151.635 9.39185L151.633 9.38989C150.452 8.1484 148.971 7.52767 147.177 7.52759Z" fill="#FFFDFD" stroke="#FFFDFD" stroke-width="0.365763"/>
<path d="M143.561 19.4573C142.856 19.4573 142.172 18.9001 141.654 17.8958C141.14 16.9008 140.818 15.5133 140.818 13.9709C140.818 12.4285 141.14 11.0402 141.654 10.0452C142.172 9.04088 142.856 8.48364 143.561 8.48364C144.265 8.48381 144.949 9.04112 145.467 10.0452C145.981 11.0402 146.304 12.4285 146.304 13.9709C146.304 15.5133 145.981 16.9008 145.467 17.8958C144.949 18.8999 144.265 19.4571 143.561 19.4573Z" fill="#FFFDFD" stroke="#FFFDFD" stroke-width="0.365763"/>
<path d="M190.561 19.4573C189.91 19.4573 189.271 18.9247 188.785 17.9514C188.303 16.989 188.001 15.6463 188 14.1536C188 12.6608 188.303 11.3182 188.785 10.3557C189.271 9.3823 189.91 8.84985 190.561 8.84985C191.212 8.84989 191.851 9.38233 192.337 10.3557C192.819 11.3182 193.122 12.6608 193.122 14.1536C193.122 15.6463 192.819 16.989 192.337 17.9514C191.851 18.9247 191.212 19.4572 190.561 19.4573Z" fill="#FFFDFD" stroke="#FFFDFD" stroke-width="0.365763"/>
<path d="M171.358 13.239C173.681 13.239 175.565 15.1222 175.565 17.4451V33.905C175.565 36.228 173.681 38.1111 171.358 38.1111C169.035 38.1108 167.152 36.2279 167.152 33.905V17.4451C167.152 15.1224 169.035 13.2393 171.358 13.239Z" fill="#FFFDFD" stroke="#FFFDFD" stroke-width="0.365763"/>
<path d="M154.533 43.4148C159.776 46.7936 173.772 51.5239 187.818 43.4148" stroke="#FFFDFD" stroke-width="7.31526" stroke-linecap="round"/>
</svg>
