<svg width="104" height="70" viewBox="0 0 104 70" fill="none" xmlns="http://www.w3.org/2000/svg">
<path d="M84.4434 0.250977C88.1267 0.250977 91.4292 1.03194 94.3447 2.59766H94.3457C97.2611 4.12061 99.5496 6.25543 101.205 9C102.862 11.7466 103.688 14.8616 103.688 18.3369C103.687 21.8121 102.862 24.9263 101.205 27.6729C99.55 30.4169 97.2627 32.5729 94.3486 34.1387L94.3457 34.1396C91.4298 35.6628 88.127 36.4219 84.4434 36.4219C80.7598 36.4218 77.4364 35.663 74.4785 34.1406L74.4746 34.1387C71.5606 32.5729 69.2733 30.4169 67.6182 27.6729C65.9615 24.9263 65.1348 21.8121 65.1348 18.3369C65.1348 14.8616 65.9615 11.7466 67.6182 9C69.2736 6.25554 71.5613 4.12058 74.4766 2.59766C77.4348 1.03177 80.759 0.251021 84.4434 0.250977ZM84.4434 8.99512C82.0893 8.99518 80.1343 9.74691 78.5615 11.2471L78.25 11.5586C76.6314 13.2187 75.8105 15.4688 75.8105 18.3369C75.8106 21.2035 76.6307 23.4751 78.25 25.1787L78.5596 25.4814C80.1319 26.9444 82.0877 27.6777 84.4434 27.6777C86.9564 27.6777 88.9912 26.8428 90.5703 25.1807H90.5713C92.1918 23.4769 93.0126 21.2045 93.0127 18.3369C93.0127 15.4688 92.1918 13.2187 90.5732 11.5586L90.5684 11.5547C88.9887 9.85034 86.9544 8.99512 84.4434 8.99512Z" fill="#895FFF" stroke="#895FFF" stroke-width="0.502981"/>
<path d="M17.8213 0.250977C22.0476 0.250977 25.4286 1.51258 27.9355 4.05273V3.5332C27.9355 2.00536 29.1743 0.766602 30.7021 0.766602H35.7158C37.2436 0.766701 38.4824 2.00543 38.4824 3.5332V33.1406C38.4823 34.6683 37.2435 35.9071 35.7158 35.9072H31.1523C29.6247 35.9071 28.3859 34.6683 28.3857 33.1406V32.332C25.8615 35.0657 22.3288 36.4219 17.8213 36.4219C14.5206 36.4218 11.5171 35.6831 8.81641 34.2021L8.81445 34.2012C6.15399 32.7183 4.06035 30.602 2.53613 27.8584C1.01029 25.1118 0.251017 21.9354 0.250977 18.3369C0.250977 14.7383 1.01018 11.5612 2.53613 8.81445C4.06031 6.07098 6.15413 3.95551 8.81445 2.47266L8.81641 2.47168C11.5172 0.990645 14.5205 0.25102 17.8213 0.250977ZM19.5596 8.99512C17.2055 8.99518 15.2505 9.74691 13.6777 11.2471L13.3662 11.5586C11.7477 13.2187 10.9268 15.4688 10.9268 18.3369C10.9268 21.2035 11.7469 23.4751 13.3662 25.1787L13.6758 25.4814C15.2481 26.9444 17.2039 27.6777 19.5596 27.6777C22.0284 27.6777 24.0657 26.8441 25.6895 25.1787C27.3087 23.4752 28.1289 21.2034 28.1289 18.3369C28.1289 15.4688 27.308 13.2187 25.6895 11.5586L25.3779 11.2471C23.8068 9.74607 21.8723 8.99512 19.5596 8.99512Z" fill="#895FFF" stroke="#895FFF" stroke-width="0.502981"/>
<path d="M14.5869 25.3999C13.6182 25.3999 12.6777 24.6344 11.9648 23.2534C11.2586 21.8851 10.8145 19.977 10.8145 17.856C10.8145 15.7349 11.2586 13.8269 11.9648 12.4585C12.6777 11.0773 13.6181 10.311 14.5869 10.311C15.5555 10.3113 16.4952 11.0775 17.208 12.4585C17.9142 13.8269 18.3584 15.7348 18.3584 17.856C18.3584 19.977 17.9142 21.8851 17.208 23.2534C16.4952 24.6342 15.5554 25.3997 14.5869 25.3999Z" fill="#895FFF" stroke="#895FFF" stroke-width="0.502981"/>
<path d="M79.2197 25.3999C78.3246 25.3998 77.4466 24.6681 76.7773 23.3296C76.1156 22.006 75.6992 20.1598 75.6992 18.1069C75.6992 16.0542 76.1156 14.2078 76.7773 12.8843C77.4466 11.546 78.3247 10.814 79.2197 10.814C80.1148 10.814 80.9928 11.546 81.6621 12.8843C82.3239 14.2078 82.7402 16.0542 82.7402 18.1069C82.7402 20.1598 82.3239 22.006 81.6621 23.3296C80.9928 24.6681 80.1148 25.3999 79.2197 25.3999Z" fill="#895FFF" stroke="#895FFF" stroke-width="0.502981"/>
<path d="M52.8125 16.8506C56.0069 16.8508 58.5967 19.4403 58.5967 22.6348V45.2686C58.5967 48.463 56.0069 51.0525 52.8125 51.0527C49.6179 51.0527 47.0283 48.4631 47.0283 45.2686V22.6348C47.0283 19.4402 49.6179 16.8506 52.8125 16.8506Z" fill="#895FFF" stroke="#895FFF" stroke-width="0.502981"/>
<path d="M29.6758 58.3457C36.8852 62.992 56.1326 69.4969 75.4471 58.3457" stroke="#895FFF" stroke-width="10.0596" stroke-linecap="round"/>
</svg>
