<svg width="130" height="32" viewBox="0 0 130 32" fill="none" xmlns="http://www.w3.org/2000/svg">
<path d="M38.5756 8.09624C39.8135 8.09624 40.817 9.09976 40.817 10.3377V24.1953C40.817 25.4434 39.8053 26.4551 38.5572 26.4551H37.8482C36.6797 26.4551 35.7325 25.5079 35.7325 24.3394C34.413 25.9319 32.502 26.7281 29.9996 26.7281C28.2706 26.7281 26.7009 26.3414 25.2904 25.5679C23.9027 24.7944 22.8107 23.691 22.0145 22.2578C21.2183 20.8246 20.8202 19.1639 20.8202 17.2757C20.8202 15.3875 21.2183 13.7267 22.0145 12.2935C22.8107 10.8603 23.9027 9.75695 25.2904 8.98347C26.7009 8.20998 28.2706 7.82324 29.9996 7.82324C32.3428 7.82324 34.1741 8.5626 35.4936 10.0413C35.4936 8.96708 36.3645 8.09624 37.4387 8.09624H38.5756ZM30.9209 22.3602C32.2632 22.3602 33.3779 21.9052 34.2651 20.9952C35.1524 20.0625 35.596 18.8226 35.596 17.2757C35.596 15.7287 35.1524 14.5002 34.2651 13.5903C33.3779 12.6575 32.2632 12.1912 30.9209 12.1912C29.556 12.1912 28.4299 12.6575 27.5426 13.5903C26.6554 14.5002 26.2118 15.7287 26.2118 17.2757C26.2118 18.8226 26.6554 20.0625 27.5426 20.9952C28.4299 21.9052 29.556 22.3602 30.9209 22.3602Z" fill="#895FFF"/>
<path d="M54.4814 26.7281C52.5477 26.7281 50.8073 26.33 49.2604 25.5338C47.7361 24.7148 46.5418 23.5887 45.6773 22.1555C44.8128 20.7222 44.3806 19.0956 44.3806 17.2757C44.3806 15.4557 44.8128 13.8291 45.6773 12.3959C46.5418 10.9627 47.7361 9.84795 49.2604 9.05172C50.8073 8.23273 52.5477 7.82324 54.4814 7.82324C56.4151 7.82324 58.1441 8.23273 59.6683 9.05172C61.1925 9.84795 62.3868 10.9627 63.2513 12.3959C64.1158 13.8291 64.5481 15.4557 64.5481 17.2757C64.5481 19.0956 64.1158 20.7222 63.2513 22.1555C62.3868 23.5887 61.1925 24.7148 59.6683 25.5338C58.1441 26.33 56.4151 26.7281 54.4814 26.7281ZM54.4814 22.3602C55.8464 22.3602 56.9611 21.9052 57.8256 20.9952C58.7128 20.0625 59.1564 18.8226 59.1564 17.2757C59.1564 15.7287 58.7128 14.5002 57.8256 13.5903C56.9611 12.6575 55.8464 12.1912 54.4814 12.1912C53.1164 12.1912 51.9903 12.6575 51.1031 13.5903C50.2158 14.5002 49.7722 15.7287 49.7722 17.2757C49.7722 18.8226 50.2158 20.0625 51.1031 20.9952C51.9903 21.9052 53.1164 22.3602 54.4814 22.3602Z" fill="#895FFF"/>
<path d="M14.9295 23.3204C14.9295 25.0872 13.4972 26.5195 11.7304 26.5195C9.96353 26.5195 8.53122 25.0872 8.53122 23.3204L8.53122 10.5238C8.53122 8.75692 9.96353 7.32461 11.7304 7.32461C13.4972 7.32461 14.9295 8.75692 14.9295 10.5238L14.9295 23.3204Z" fill="#895FFF"/>
<path d="M20.7946 5.92725C17.9392 3.51309 10.316 0.133273 2.66611 5.92724" stroke="#895FFF" stroke-width="5.33192" stroke-linecap="round"/>
<path d="M120.584 0.11377C122.252 0.11377 123.749 0.467916 125.07 1.17725H125.071C126.392 1.86734 127.429 2.83495 128.179 4.07861C128.93 5.3231 129.304 6.73446 129.304 8.30908C129.304 9.88374 128.93 11.295 128.179 12.5396C127.429 13.7829 126.392 14.7598 125.072 15.4692L125.071 15.4702C123.75 16.1603 122.253 16.5034 120.584 16.5034C118.915 16.5034 117.408 16.1601 116.068 15.4702L116.067 15.4692C114.747 14.7598 113.71 13.7829 112.96 12.5396C112.209 11.295 111.835 9.88374 111.835 8.30908C111.835 6.73446 112.209 5.3231 112.96 4.07861C113.71 2.83515 114.746 1.86732 116.067 1.17725C117.407 0.467577 118.914 0.113829 120.584 0.11377ZM120.584 4.07568C119.446 4.07578 118.514 4.46375 117.779 5.23682L117.778 5.23779C117.045 5.99001 116.672 7.00945 116.672 8.30908C116.672 9.60822 117.044 10.6377 117.778 11.4097L117.918 11.5464C118.63 12.2093 119.516 12.5414 120.584 12.5415C121.722 12.5415 122.644 12.1636 123.36 11.4106C124.094 10.6386 124.466 9.60854 124.466 8.30908C124.466 7.00945 124.094 5.99001 123.361 5.23779L123.359 5.23584C122.643 4.46364 121.721 4.07568 120.584 4.07568Z" fill="#895FFF" stroke="#895FFF" stroke-width="0.227913"/>
<path d="M90.3957 0.11377C92.311 0.113798 93.8427 0.686041 94.9787 1.8374V1.60107C94.9787 0.90888 95.5395 0.347343 96.2316 0.347168H98.5041C99.1963 0.347328 99.757 0.908871 99.757 1.60107V15.0171C99.7569 15.7092 99.1962 16.2699 98.5041 16.27H96.4357C95.7437 16.2698 95.1829 15.7091 95.1828 15.0171V14.6499C94.039 15.889 92.4384 16.5034 90.3957 16.5034C88.9934 16.5034 87.7095 16.2094 86.5461 15.6196L86.3146 15.4976C85.1092 14.8257 84.1606 13.8666 83.4699 12.6235C82.7785 11.379 82.4338 9.93965 82.4338 8.30908C82.4338 6.67847 82.7785 5.23923 83.4699 3.99463C84.1606 2.75144 85.1091 1.79253 86.3146 1.12061V1.11963C87.5385 0.448483 88.8999 0.11377 90.3957 0.11377ZM91.1828 4.07568C90.0453 4.07578 89.1136 4.46375 88.3781 5.23682L88.3771 5.23779C87.6437 5.99001 87.2717 7.00945 87.2717 8.30908C87.2717 9.60822 87.6431 10.6377 88.3771 11.4097L88.5168 11.5464C89.2292 12.2093 90.1155 12.5414 91.1828 12.5415C92.3013 12.5415 93.2245 12.164 93.9602 11.4097C94.6942 10.6377 95.0656 9.60822 95.0656 8.30908C95.0656 7.00945 94.6936 5.99001 93.9602 5.23779L93.9592 5.23682C93.2232 4.46323 92.3005 4.07568 91.1828 4.07568Z" fill="#895FFF" stroke="#895FFF" stroke-width="0.227913"/>
<path d="M88.9297 11.5093C88.4907 11.5093 88.0642 11.1625 87.7412 10.5366C87.4213 9.91668 87.2207 9.05222 87.2207 8.09131C87.2207 7.13018 87.4212 6.26506 87.7412 5.64502C88.0642 5.01915 88.4907 4.67236 88.9297 4.67236C89.3685 4.6724 89.7942 5.01937 90.1172 5.64502C90.4372 6.26506 90.6387 7.13016 90.6387 8.09131C90.6386 9.05229 90.4371 9.91667 90.1172 10.5366C89.7942 11.1623 89.3686 11.5092 88.9297 11.5093Z" fill="#895FFF" stroke="#895FFF" stroke-width="0.227913"/>
<path d="M118.217 11.5093C117.811 11.5093 117.413 11.1773 117.109 10.5708C116.81 9.9711 116.621 9.13453 116.621 8.20459C116.621 7.27454 116.81 6.43805 117.109 5.83838C117.413 5.23183 117.811 4.8999 118.217 4.8999C118.622 4.9001 119.02 5.23202 119.323 5.83838C119.623 6.43806 119.812 7.2745 119.812 8.20459C119.812 9.13458 119.623 9.97109 119.323 10.5708C119.02 11.1772 118.622 11.5091 118.217 11.5093Z" fill="#895FFF" stroke="#895FFF" stroke-width="0.227913"/>
<path d="M106.251 7.63574C107.699 7.63595 108.872 8.80943 108.872 10.2568V20.5127C108.872 21.96 107.699 23.1336 106.251 23.1338C104.804 23.1338 103.63 21.9602 103.63 20.5127V10.2568C103.63 8.8093 104.804 7.63574 106.251 7.63574Z" fill="#895FFF" stroke="#895FFF" stroke-width="0.227913"/>
<path d="M95.767 26.438C99.0338 28.5434 107.755 31.4909 116.507 26.438" stroke="#895FFF" stroke-width="4.55827" stroke-linecap="round"/>
</svg>
