<svg width="1920" height="238" viewBox="0 0 1920 238" fill="none" xmlns="http://www.w3.org/2000/svg">
<g clip-path="url(#clip0_9_4243)">
<path d="M25.0927 72.0403C179.593 -42.8276 331.593 -1.9651 465.593 78.8509C605.519 163.241 798.18 145.947 941.095 78.8509C1176.09 -31.4767 1400.1 -1.96503 1484.1 78.8509C1484.22 78.9418 1526.06 109.954 1589.26 167.819C1691.47 86.4682 1763.73 47.9309 1818.09 25.0638C1886.09 -3.53939 2028.59 3.2978 2094.09 60.6126C2159.55 117.89 2168.18 237.393 2168.19 237.548H1661.89C1661.96 237.618 1662.03 237.689 1662.1 237.759H-23.9063C-99.906 237.759 -129.407 186.908 25.0927 72.0403Z" fill="#B7ED89"/>
<path d="M1919.59 238H-0.406738V62.7542C3.76319 92.1132 140.704 185.335 361.376 79.0983C582.048 -27.1387 766.192 -1.71449 900.297 79.0983C1040.33 163.485 1233.14 146.191 1376.17 79.0983C1611.35 -31.225 1835.53 -1.71441 1919.59 79.0983V238Z" fill="#C0F891"/>
<g opacity="0.5">
<ellipse cx="2.7541" cy="3.59446" rx="2.7541" ry="3.59446" transform="matrix(0.69151 -0.704272 0.757621 0.673054 503.523 81.382)" fill="#9BDE65"/>
<ellipse cx="2.77172" cy="3.59532" rx="2.77172" ry="3.59532" transform="matrix(0.777311 0.651021 0.669591 -0.724367 503.273 86.8134)" fill="#9BDE65"/>
<ellipse cx="2.76821" cy="3.59973" rx="2.76821" ry="3.59973" transform="matrix(0.751378 0.679763 -0.698208 0.697897 512.843 77.5791)" fill="#9BDE65"/>
<ellipse cx="2.75064" cy="3.59903" rx="2.75064" ry="3.59903" transform="matrix(0.662637 -0.730507 -0.783258 -0.644089 513.059 89.8353)" fill="#9BDE65"/>
</g>
<g opacity="0.5">
<ellipse cx="2.7541" cy="3.59446" rx="2.7541" ry="3.59446" transform="matrix(0.69151 -0.704272 0.757621 0.673054 421.523 50.0196)" fill="#9BDE65"/>
<ellipse cx="2.77172" cy="3.59532" rx="2.77172" ry="3.59532" transform="matrix(0.777311 0.651021 0.669591 -0.724367 421.273 55.451)" fill="#9BDE65"/>
<ellipse cx="2.76821" cy="3.59973" rx="2.76821" ry="3.59973" transform="matrix(0.751378 0.679763 -0.698208 0.697897 430.843 46.2167)" fill="#9BDE65"/>
<ellipse cx="2.75064" cy="3.59903" rx="2.75064" ry="3.59903" transform="matrix(0.662637 -0.730507 -0.783258 -0.644089 431.059 58.4729)" fill="#9BDE65"/>
</g>
<g opacity="0.5">
<ellipse cx="2.7541" cy="3.59446" rx="2.7541" ry="3.59446" transform="matrix(0.69151 -0.704272 0.757621 0.673054 571.523 16.7563)" fill="#9BDE65"/>
<ellipse cx="2.77172" cy="3.59532" rx="2.77172" ry="3.59532" transform="matrix(0.777311 0.651021 0.669591 -0.724367 571.273 22.1877)" fill="#9BDE65"/>
<ellipse cx="2.76821" cy="3.59973" rx="2.76821" ry="3.59973" transform="matrix(0.751378 0.679763 -0.698208 0.697897 580.843 12.9533)" fill="#9BDE65"/>
<ellipse cx="2.75064" cy="3.59903" rx="2.75064" ry="3.59903" transform="matrix(0.662637 -0.730507 -0.783258 -0.644089 581.059 25.2095)" fill="#9BDE65"/>
</g>
<g opacity="0.5">
<ellipse cx="2.7541" cy="3.59446" rx="2.7541" ry="3.59446" transform="matrix(0.69151 -0.704272 0.757621 0.673054 555.523 144.107)" fill="#9BDE65"/>
<ellipse cx="2.77172" cy="3.59532" rx="2.77172" ry="3.59532" transform="matrix(0.777311 0.651021 0.669591 -0.724367 555.273 149.538)" fill="#9BDE65"/>
<ellipse cx="2.76821" cy="3.59973" rx="2.76821" ry="3.59973" transform="matrix(0.751378 0.679763 -0.698208 0.697897 564.843 140.304)" fill="#9BDE65"/>
<ellipse cx="2.75064" cy="3.59903" rx="2.75064" ry="3.59903" transform="matrix(0.662637 -0.730507 -0.783258 -0.644089 565.059 152.56)" fill="#9BDE65"/>
</g>
<g opacity="0.5">
<ellipse cx="2.7541" cy="3.59446" rx="2.7541" ry="3.59446" transform="matrix(0.69151 -0.704272 0.757621 0.673054 657.523 44.3173)" fill="#9BDE65"/>
<ellipse cx="2.77172" cy="3.59532" rx="2.77172" ry="3.59532" transform="matrix(0.777311 0.651021 0.669591 -0.724367 657.273 49.7487)" fill="#9BDE65"/>
<ellipse cx="2.76821" cy="3.59973" rx="2.76821" ry="3.59973" transform="matrix(0.751378 0.679763 -0.698208 0.697897 666.843 40.5143)" fill="#9BDE65"/>
<ellipse cx="2.75064" cy="3.59903" rx="2.75064" ry="3.59903" transform="matrix(0.662637 -0.730507 -0.783258 -0.644089 667.059 52.7705)" fill="#9BDE65"/>
</g>
<g opacity="0.5">
<ellipse cx="2.7541" cy="3.59446" rx="2.7541" ry="3.59446" transform="matrix(0.69151 -0.704272 0.757621 0.673054 755.523 107.042)" fill="#9BDE65"/>
<ellipse cx="2.77172" cy="3.59532" rx="2.77172" ry="3.59532" transform="matrix(0.777311 0.651021 0.669591 -0.724367 755.273 112.473)" fill="#9BDE65"/>
<ellipse cx="2.76821" cy="3.59973" rx="2.76821" ry="3.59973" transform="matrix(0.751378 0.679763 -0.698208 0.697897 764.843 103.239)" fill="#9BDE65"/>
<ellipse cx="2.75064" cy="3.59903" rx="2.75064" ry="3.59903" transform="matrix(0.662637 -0.730507 -0.783258 -0.644089 765.059 115.495)" fill="#9BDE65"/>
</g>
<g opacity="0.5">
<ellipse cx="2.7541" cy="3.59446" rx="2.7541" ry="3.59446" transform="matrix(0.69151 -0.704272 0.757621 0.673054 669.523 146.958)" fill="#9BDE65"/>
<ellipse cx="2.77172" cy="3.59532" rx="2.77172" ry="3.59532" transform="matrix(0.777311 0.651021 0.669591 -0.724367 669.273 152.389)" fill="#9BDE65"/>
<ellipse cx="2.76821" cy="3.59973" rx="2.76821" ry="3.59973" transform="matrix(0.751378 0.679763 -0.698208 0.697897 678.843 143.155)" fill="#9BDE65"/>
<ellipse cx="2.75064" cy="3.59903" rx="2.75064" ry="3.59903" transform="matrix(0.662637 -0.730507 -0.783258 -0.644089 679.059 155.411)" fill="#9BDE65"/>
</g>
<g opacity="0.5">
<ellipse cx="2.7541" cy="3.59446" rx="2.7541" ry="3.59446" transform="matrix(0.69151 -0.704272 0.757621 0.673054 877.523 154.561)" fill="#9BDE65"/>
<ellipse cx="2.77172" cy="3.59532" rx="2.77172" ry="3.59532" transform="matrix(0.777311 0.651021 0.669591 -0.724367 877.273 159.992)" fill="#9BDE65"/>
<ellipse cx="2.76821" cy="3.59973" rx="2.76821" ry="3.59973" transform="matrix(0.751378 0.679763 -0.698208 0.697897 886.843 150.758)" fill="#9BDE65"/>
<ellipse cx="2.75064" cy="3.59903" rx="2.75064" ry="3.59903" transform="matrix(0.662637 -0.730507 -0.783258 -0.644089 887.059 163.014)" fill="#9BDE65"/>
</g>
<g opacity="0.5">
<ellipse cx="2.7541" cy="3.59446" rx="2.7541" ry="3.59446" transform="matrix(0.69151 -0.704272 0.757621 0.673054 1011.52 109.893)" fill="#9BDE65"/>
<ellipse cx="2.77172" cy="3.59532" rx="2.77172" ry="3.59532" transform="matrix(0.777311 0.651021 0.669591 -0.724367 1011.27 115.324)" fill="#9BDE65"/>
<ellipse cx="2.76821" cy="3.59973" rx="2.76821" ry="3.59973" transform="matrix(0.751378 0.679763 -0.698208 0.697897 1020.84 106.09)" fill="#9BDE65"/>
<ellipse cx="2.75064" cy="3.59903" rx="2.75064" ry="3.59903" transform="matrix(0.662637 -0.730507 -0.783258 -0.644089 1021.06 118.346)" fill="#9BDE65"/>
</g>
<g opacity="0.5">
<ellipse cx="2.7541" cy="3.59446" rx="2.7541" ry="3.59446" transform="matrix(0.69151 -0.704272 0.757621 0.673054 1092.52 155.511)" fill="#9BDE65"/>
<ellipse cx="2.77172" cy="3.59532" rx="2.77172" ry="3.59532" transform="matrix(0.777311 0.651021 0.669591 -0.724367 1092.27 160.942)" fill="#9BDE65"/>
<ellipse cx="2.76821" cy="3.59973" rx="2.76821" ry="3.59973" transform="matrix(0.751378 0.679763 -0.698208 0.697897 1101.84 151.708)" fill="#9BDE65"/>
<ellipse cx="2.75064" cy="3.59903" rx="2.75064" ry="3.59903" transform="matrix(0.662637 -0.730507 -0.783258 -0.644089 1102.06 163.964)" fill="#9BDE65"/>
</g>
<g opacity="0.5">
<ellipse cx="2.7541" cy="3.59446" rx="2.7541" ry="3.59446" transform="matrix(0.69151 -0.704272 0.757621 0.673054 1231.52 108.943)" fill="#9BDE65"/>
<ellipse cx="2.77172" cy="3.59532" rx="2.77172" ry="3.59532" transform="matrix(0.777311 0.651021 0.669591 -0.724367 1231.27 114.374)" fill="#9BDE65"/>
<ellipse cx="2.76821" cy="3.59973" rx="2.76821" ry="3.59973" transform="matrix(0.751378 0.679763 -0.698208 0.697897 1240.84 105.14)" fill="#9BDE65"/>
<ellipse cx="2.75064" cy="3.59903" rx="2.75064" ry="3.59903" transform="matrix(0.662637 -0.730507 -0.783258 -0.644089 1241.06 117.396)" fill="#9BDE65"/>
</g>
<g opacity="0.5">
<ellipse cx="2.7541" cy="3.59446" rx="2.7541" ry="3.59446" transform="matrix(0.69151 -0.704272 0.757621 0.673054 1336.52 145.057)" fill="#9BDE65"/>
<ellipse cx="2.77172" cy="3.59532" rx="2.77172" ry="3.59532" transform="matrix(0.777311 0.651021 0.669591 -0.724367 1336.27 150.488)" fill="#9BDE65"/>
<ellipse cx="2.76821" cy="3.59973" rx="2.76821" ry="3.59973" transform="matrix(0.751378 0.679763 -0.698208 0.697897 1345.84 141.254)" fill="#9BDE65"/>
<ellipse cx="2.75064" cy="3.59903" rx="2.75064" ry="3.59903" transform="matrix(0.662637 -0.730507 -0.783258 -0.644089 1346.06 153.51)" fill="#9BDE65"/>
</g>
<g opacity="0.5">
<ellipse cx="2.7541" cy="3.59446" rx="2.7541" ry="3.59446" transform="matrix(0.69151 -0.704272 0.757621 0.673054 1393.52 75.6796)" fill="#9BDE65"/>
<ellipse cx="2.77172" cy="3.59532" rx="2.77172" ry="3.59532" transform="matrix(0.777311 0.651021 0.669591 -0.724367 1393.27 81.111)" fill="#9BDE65"/>
<ellipse cx="2.76821" cy="3.59973" rx="2.76821" ry="3.59973" transform="matrix(0.751378 0.679763 -0.698208 0.697897 1402.84 71.8766)" fill="#9BDE65"/>
<ellipse cx="2.75064" cy="3.59903" rx="2.75064" ry="3.59903" transform="matrix(0.662637 -0.730507 -0.783258 -0.644089 1403.06 84.1331)" fill="#9BDE65"/>
</g>
<g opacity="0.5">
<ellipse cx="2.7541" cy="3.59446" rx="2.7541" ry="3.59446" transform="matrix(0.69151 -0.704272 0.757621 0.673054 1498.52 140.305)" fill="#9BDE65"/>
<ellipse cx="2.77172" cy="3.59532" rx="2.77172" ry="3.59532" transform="matrix(0.777311 0.651021 0.669591 -0.724367 1498.27 145.737)" fill="#9BDE65"/>
<ellipse cx="2.76821" cy="3.59973" rx="2.76821" ry="3.59973" transform="matrix(0.751378 0.679763 -0.698208 0.697897 1507.84 136.502)" fill="#9BDE65"/>
<ellipse cx="2.75064" cy="3.59903" rx="2.75064" ry="3.59903" transform="matrix(0.662637 -0.730507 -0.783258 -0.644089 1508.06 148.759)" fill="#9BDE65"/>
</g>
<g opacity="0.5">
<ellipse cx="2.7541" cy="3.59446" rx="2.7541" ry="3.59446" transform="matrix(0.69151 -0.704272 0.757621 0.673054 1532.52 32.9127)" fill="#9BDE65"/>
<ellipse cx="2.77172" cy="3.59532" rx="2.77172" ry="3.59532" transform="matrix(0.777311 0.651021 0.669591 -0.724367 1532.27 38.3441)" fill="#9BDE65"/>
<ellipse cx="2.76821" cy="3.59973" rx="2.76821" ry="3.59973" transform="matrix(0.751378 0.679763 -0.698208 0.697897 1541.84 29.1098)" fill="#9BDE65"/>
<ellipse cx="2.75064" cy="3.59903" rx="2.75064" ry="3.59903" transform="matrix(0.662637 -0.730507 -0.783258 -0.644089 1542.06 41.3662)" fill="#9BDE65"/>
</g>
<g opacity="0.5">
<ellipse cx="2.7541" cy="3.59446" rx="2.7541" ry="3.59446" transform="matrix(0.69151 -0.704272 0.757621 0.673054 1595.52 86.1337)" fill="#9BDE65"/>
<ellipse cx="2.77172" cy="3.59532" rx="2.77172" ry="3.59532" transform="matrix(0.777311 0.651021 0.669591 -0.724367 1595.27 91.5651)" fill="#9BDE65"/>
<ellipse cx="2.76821" cy="3.59973" rx="2.76821" ry="3.59973" transform="matrix(0.751378 0.679763 -0.698208 0.697897 1604.84 82.3308)" fill="#9BDE65"/>
<ellipse cx="2.75064" cy="3.59903" rx="2.75064" ry="3.59903" transform="matrix(0.662637 -0.730507 -0.783258 -0.644089 1605.06 94.5872)" fill="#9BDE65"/>
</g>
<g opacity="0.5">
<ellipse cx="2.7541" cy="3.59446" rx="2.7541" ry="3.59446" transform="matrix(0.69151 -0.704272 0.757621 0.673054 1699.52 45.2676)" fill="#9BDE65"/>
<ellipse cx="2.77172" cy="3.59532" rx="2.77172" ry="3.59532" transform="matrix(0.777311 0.651021 0.669591 -0.724367 1699.27 50.6989)" fill="#9BDE65"/>
<ellipse cx="2.76821" cy="3.59973" rx="2.76821" ry="3.59973" transform="matrix(0.751378 0.679763 -0.698208 0.697897 1708.84 41.4646)" fill="#9BDE65"/>
<ellipse cx="2.75064" cy="3.59903" rx="2.75064" ry="3.59903" transform="matrix(0.662637 -0.730507 -0.783258 -0.644089 1709.06 53.721)" fill="#9BDE65"/>
</g>
<g opacity="0.5">
<ellipse cx="2.7541" cy="3.59446" rx="2.7541" ry="3.59446" transform="matrix(0.69151 -0.704272 0.757621 0.673054 1803.52 37.6569)" fill="#9BDE65"/>
<ellipse cx="2.77172" cy="3.59532" rx="2.77172" ry="3.59532" transform="matrix(0.777311 0.651021 0.669591 -0.724367 1803.27 43.0883)" fill="#9BDE65"/>
<ellipse cx="2.76821" cy="3.59973" rx="2.76821" ry="3.59973" transform="matrix(0.751378 0.679763 -0.698208 0.697897 1812.84 33.854)" fill="#9BDE65"/>
<ellipse cx="2.75064" cy="3.59903" rx="2.75064" ry="3.59903" transform="matrix(0.662637 -0.730507 -0.783258 -0.644089 1813.06 46.1104)" fill="#9BDE65"/>
</g>
<g opacity="0.5">
<ellipse cx="2.7541" cy="3.59446" rx="2.7541" ry="3.59446" transform="matrix(0.69151 -0.704272 0.757621 0.673054 1881.52 48.1186)" fill="#9BDE65"/>
<ellipse cx="2.77172" cy="3.59532" rx="2.77172" ry="3.59532" transform="matrix(0.777311 0.651021 0.669591 -0.724367 1881.27 53.55)" fill="#9BDE65"/>
<ellipse cx="2.76821" cy="3.59973" rx="2.76821" ry="3.59973" transform="matrix(0.751378 0.679763 -0.698208 0.697897 1890.84 44.3157)" fill="#9BDE65"/>
<ellipse cx="2.75064" cy="3.59903" rx="2.75064" ry="3.59903" transform="matrix(0.662637 -0.730507 -0.783258 -0.644089 1891.06 56.5721)" fill="#9BDE65"/>
</g>
<g opacity="0.5">
<ellipse cx="2.7541" cy="3.59446" rx="2.7541" ry="3.59446" transform="matrix(0.69151 -0.704272 0.757621 0.673054 1649.51 156.379)" fill="#9BDE65"/>
<ellipse cx="2.77172" cy="3.59532" rx="2.77172" ry="3.59532" transform="matrix(0.777311 0.651021 0.669591 -0.724367 1649.26 161.811)" fill="#9BDE65"/>
<ellipse cx="2.76821" cy="3.59973" rx="2.76821" ry="3.59973" transform="matrix(0.751378 0.679763 -0.698208 0.697897 1658.83 152.576)" fill="#9BDE65"/>
<ellipse cx="2.75064" cy="3.59903" rx="2.75064" ry="3.59903" transform="matrix(0.662637 -0.730507 -0.783258 -0.644089 1659.05 164.833)" fill="#9BDE65"/>
</g>
<g opacity="0.5">
<ellipse cx="2.7541" cy="3.59446" rx="2.7541" ry="3.59446" transform="matrix(0.69151 -0.704272 0.757621 0.673054 1734.52 120.347)" fill="#9BDE65"/>
<ellipse cx="2.77172" cy="3.59532" rx="2.77172" ry="3.59532" transform="matrix(0.777311 0.651021 0.669591 -0.724367 1734.27 125.779)" fill="#9BDE65"/>
<ellipse cx="2.76821" cy="3.59973" rx="2.76821" ry="3.59973" transform="matrix(0.751378 0.679763 -0.698208 0.697897 1743.84 116.544)" fill="#9BDE65"/>
<ellipse cx="2.75064" cy="3.59903" rx="2.75064" ry="3.59903" transform="matrix(0.662637 -0.730507 -0.783258 -0.644089 1744.06 128.801)" fill="#9BDE65"/>
</g>
<g opacity="0.5">
<ellipse cx="2.7541" cy="3.59446" rx="2.7541" ry="3.59446" transform="matrix(0.69151 -0.704272 0.757621 0.673054 1830.52 146.007)" fill="#9BDE65"/>
<ellipse cx="2.77172" cy="3.59532" rx="2.77172" ry="3.59532" transform="matrix(0.777311 0.651021 0.669591 -0.724367 1830.27 151.439)" fill="#9BDE65"/>
<ellipse cx="2.76821" cy="3.59973" rx="2.76821" ry="3.59973" transform="matrix(0.751378 0.679763 -0.698208 0.697897 1839.84 142.205)" fill="#9BDE65"/>
<ellipse cx="2.75064" cy="3.59903" rx="2.75064" ry="3.59903" transform="matrix(0.662637 -0.730507 -0.783258 -0.644089 1840.06 154.461)" fill="#9BDE65"/>
</g>
<g opacity="0.5">
<ellipse cx="2.7541" cy="3.59446" rx="2.7541" ry="3.59446" transform="matrix(0.69151 -0.704272 0.757621 0.673054 893.523 84.027)" fill="#9BDE65"/>
<ellipse cx="2.77172" cy="3.59532" rx="2.77172" ry="3.59532" transform="matrix(0.777311 0.651021 0.669591 -0.724367 893.273 89.4584)" fill="#9BDE65"/>
<ellipse cx="2.76821" cy="3.59973" rx="2.76821" ry="3.59973" transform="matrix(0.751378 0.679763 -0.698208 0.697897 902.843 80.224)" fill="#9BDE65"/>
<ellipse cx="2.75064" cy="3.59903" rx="2.75064" ry="3.59903" transform="matrix(0.662637 -0.730507 -0.783258 -0.644089 903.059 92.4802)" fill="#9BDE65"/>
</g>
<g opacity="0.5">
<ellipse cx="2.7541" cy="3.59446" rx="2.7541" ry="3.59446" transform="matrix(0.69151 -0.704272 0.757621 0.673054 358.523 141.256)" fill="#9BDE65"/>
<ellipse cx="2.77172" cy="3.59532" rx="2.77172" ry="3.59532" transform="matrix(0.777311 0.651021 0.669591 -0.724367 358.273 146.687)" fill="#9BDE65"/>
<ellipse cx="2.76821" cy="3.59973" rx="2.76821" ry="3.59973" transform="matrix(0.751378 0.679763 -0.698208 0.697897 367.843 137.453)" fill="#9BDE65"/>
<ellipse cx="2.75064" cy="3.59903" rx="2.75064" ry="3.59903" transform="matrix(0.662637 -0.730507 -0.783258 -0.644089 368.059 149.709)" fill="#9BDE65"/>
</g>
<g opacity="0.5">
<ellipse cx="2.7541" cy="3.59446" rx="2.7541" ry="3.59446" transform="matrix(0.69151 -0.704272 0.757621 0.673054 281.523 92.7865)" fill="#9BDE65"/>
<ellipse cx="2.77172" cy="3.59532" rx="2.77172" ry="3.59532" transform="matrix(0.777311 0.651021 0.669591 -0.724367 281.273 98.2179)" fill="#9BDE65"/>
<ellipse cx="2.76821" cy="3.59973" rx="2.76821" ry="3.59973" transform="matrix(0.751378 0.679763 -0.698208 0.697897 290.843 88.9836)" fill="#9BDE65"/>
<ellipse cx="2.75064" cy="3.59903" rx="2.75064" ry="3.59903" transform="matrix(0.662637 -0.730507 -0.783258 -0.644089 291.059 101.24)" fill="#9BDE65"/>
</g>
<g opacity="0.5">
<ellipse cx="2.7541" cy="3.59446" rx="2.7541" ry="3.59446" transform="matrix(0.69151 -0.704272 0.757621 0.673054 157.523 156.462)" fill="#9BDE65"/>
<ellipse cx="2.77172" cy="3.59532" rx="2.77172" ry="3.59532" transform="matrix(0.777311 0.651021 0.669591 -0.724367 157.273 161.893)" fill="#9BDE65"/>
<ellipse cx="2.76821" cy="3.59973" rx="2.76821" ry="3.59973" transform="matrix(0.751378 0.679763 -0.698208 0.697897 166.843 152.659)" fill="#9BDE65"/>
<ellipse cx="2.75064" cy="3.59903" rx="2.75064" ry="3.59903" transform="matrix(0.662637 -0.730507 -0.783258 -0.644089 167.059 164.915)" fill="#9BDE65"/>
</g>
<g opacity="0.5">
<ellipse cx="2.7541" cy="3.59446" rx="2.7541" ry="3.59446" transform="matrix(0.69151 -0.704272 0.757621 0.673054 50.5227 101.34)" fill="#9BDE65"/>
<ellipse cx="2.77172" cy="3.59532" rx="2.77172" ry="3.59532" transform="matrix(0.777311 0.651021 0.669591 -0.724367 50.2732 106.771)" fill="#9BDE65"/>
<ellipse cx="2.76821" cy="3.59973" rx="2.76821" ry="3.59973" transform="matrix(0.751378 0.679763 -0.698208 0.697897 59.8431 97.537)" fill="#9BDE65"/>
<ellipse cx="2.75064" cy="3.59903" rx="2.75064" ry="3.59903" transform="matrix(0.662637 -0.730507 -0.783258 -0.644089 60.0592 109.793)" fill="#9BDE65"/>
</g>
<g opacity="0.5">
<ellipse cx="2.7541" cy="3.59446" rx="2.7541" ry="3.59446" transform="matrix(0.69151 -0.704272 0.757621 0.673054 9.52274 146.958)" fill="#9BDE65"/>
<ellipse cx="2.77172" cy="3.59532" rx="2.77172" ry="3.59532" transform="matrix(0.777311 0.651021 0.669591 -0.724367 9.27322 152.389)" fill="#9BDE65"/>
<ellipse cx="2.76821" cy="3.59973" rx="2.76821" ry="3.59973" transform="matrix(0.751378 0.679763 -0.698208 0.697897 18.8431 143.155)" fill="#9BDE65"/>
<ellipse cx="2.75064" cy="3.59903" rx="2.75064" ry="3.59903" transform="matrix(0.662637 -0.730507 -0.783258 -0.644089 19.0592 155.411)" fill="#9BDE65"/>
</g>
</g>
<defs>
<clipPath id="clip0_9_4243">
<rect width="1920" height="238" fill="white"/>
</clipPath>
</defs>
</svg>
